<?xml version="1.0" encoding="UTF-8"?>
<svg fill="#FF0440" width="100pt" height="100pt" version="1.1" viewBox="0 0 100 100" xmlns="http://www.w3.org/2000/svg">
 <path d="m91 56.5h-15.5v-5c-0.007812-1.3867-1.1133-2.4922-2.5-2.5h-21.5v-4.5h17.5c2.1992 0 4-1.8008 4-4v-25c0-2.1992-1.8008-4-4-4h-38c-2.1992 0-4 1.8008-4 4v25c0 2.1992 1.8008 4 4 4h17.5v4.5h-21.5c-1.3867 0.007812-2.4922 1.1133-2.5 2.5v5h-15.5c-2.1992 0-4 1.8008-4 4v24c0 2.1992 1.8008 4 4 4h34c2.1992 0 4-1.8008 4-4v-24c0-2.1992-1.8008-4-4-4h-15.5v-4.5h45v4.5h-15.5c-2.1992 0-4 1.8008-4 4v24c0 2.1992 1.8008 4 4 4h34c2.1992 0 4-1.8008 4-4v-24c0-2.1992-1.8008-4-4-4zm-47 28c0 0.54297-0.45703 1-1 1h-34c-0.53906 0-1-0.45703-1-1v-17.977h36zm-1-25c0.54297 0 1 0.45703 1 1v3.0234h-36v-3.0234c0-0.54297 0.46094-1 1-1zm-12-45h38c0.54297 0 1 0.45703 1 1v3h-40v-3c0-0.54297 0.46094-1 1-1zm0 27c-0.53906 0-1-0.45703-1-1v-19h40v19c0 0.54297-0.45703 1-1 1zm61 43c0 0.54297-0.45703 1-1 1h-34c-0.53906 0-1-0.45703-1-1v-17.977h36zm0-20.977h-36v-3.0234c0-0.54297 0.46094-1 1-1h34c0.54297 0 1 0.45703 1 1z"/>
</svg>
