<?xml version="1.0" encoding="UTF-8"?>
<svg fill="#FF0440" width="100pt" height="100pt" version="1.1" viewBox="0 0 100 100" xmlns="http://www.w3.org/2000/svg">
 <g>
  <path d="m92.188 1.5938l-9.082 6.8125-9.1328 21.312h-7.3477l-2.8828-6.25h1.8828c3.4453 0 6.25-2.8047 6.25-6.25v-6.25h3.125v-9.375h-9.375v9.375h3.125v6.25c0 1.7227-1.4023 3.125-3.125 3.125h-3.3281l-3.9922-8.6562 4.7852-2.3906-15.668-6.7148-3.6797 12.887c-0.10156-7.668-6.3633-13.875-14.055-13.875-7.7539 0-14.062 6.3086-14.062 14.062 0 4.6875 2.375 9.082 6.25 11.68v2.3828h-3.7852l-0.24219 1.2656c-0.75781 3.9375-0.82812 7.9805-0.21094 12.016l-10.645 18.996 11.785 2.6875-0.003906 19.691h15.625v14.062h37.5v-21.773c10.773-7.7383 17.172-20.18 17.164-33.449l-0.003906-5.6992c0-2.1484-0.20312-4.3398-0.60156-6.5156l-0.23438-1.2812h-3.0664l7.0312-16.875zm-23.438 3.125h3.125v3.125h-3.125zm20.312 5.2812l-1.7266-0.86328 1.7266-1.293zm-25.879 19.719h-5.9258l-2.8398-6.25h5.8828zm-12.199-6.25l2.8398 6.25h-6.9492v-3.125c0-1.7227 1.4023-3.125 3.125-3.125zm-1.5312-16.617l6.2109 2.6602-1.4648 0.73438 4.6602 10.094h-5.8594l-3.8125-8.3711-1.3984 0.69922zm-1.7656 9.3633l1.8945 4.1719c-3.25 0.21484-5.832 2.9023-5.832 6.207v3.125h-6.25v-2.3828c3.125-2.0938 5.25-5.3672 5.9648-9.0078zm-23.469 8.9023c-3.3711-1.957-5.4688-5.582-5.4688-9.4609 0-6.0312 4.9062-10.938 10.938-10.938s10.938 4.9062 10.938 10.938c0 3.8828-2.0977 7.5078-5.4688 9.4609l-0.78125 0.44922v4.1484h-3.125v-9.6641c1.8125-0.64844 3.125-2.3672 3.125-4.3984 0-2.5859-2.1016-4.6875-4.6875-4.6875s-4.6875 2.1016-4.6875 4.6875c0 2.0352 1.3125 3.7539 3.125 4.3984v9.6641h-3.125v-4.1484zm3.9062-9.4609c0-0.86328 0.69922-1.5625 1.5625-1.5625s1.5625 0.69922 1.5625 1.5625-0.69922 1.5625-1.5625 1.5625-1.5625-0.70312-1.5625-1.5625zm57.809 21.859l0.003906 5.7031c0.007812 12.516-6.1562 24.234-16.488 31.348l-0.67578 0.46484v20.281h-31.25v-14.062h-15.625v-19.059l-10.141-2.3125 9.1406-16.309-0.09375-0.54297c-0.57813-3.418-0.61719-6.8398-0.10938-10.188h64.898c0.22656 1.5664 0.33984 3.1328 0.33984 4.6758zm-8.5664-7.7969l7.7891-18.172 3.4648 1.7305-6.8516 16.441z"/>
  <path d="m32.812 42.219c-2.5859 0-4.6875-2.1016-4.6875-4.6875h-3.125c0 4.3086 3.5039 7.8125 7.8125 7.8125s7.8125-3.5039 7.8125-7.8125h-3.125c0 2.582-2.1016 4.6875-4.6875 4.6875z"/>
 </g>
</svg>
