<?xml version="1.0" encoding="UTF-8"?>
<svg fill="#FF0440" width="100pt" height="100pt" version="1.1" viewBox="0 0 100 100" xmlns="http://www.w3.org/2000/svg">
 <g>
  <path d="m81.438 73.336h-62.875c-2.3594 0-4.2773-1.9219-4.2773-4.2773v-7.8672c0-0.78906 0.64062-1.4297 1.4297-1.4297h68.57c0.78906 0 1.4297 0.64062 1.4297 1.4297v7.8672c0 2.3555-1.918 4.2773-4.2773 4.2773zm-64.293-10.715v6.4375c0 0.78125 0.63672 1.4219 1.4219 1.4219h62.875c0.77734-0.003907 1.4141-0.64062 1.4141-1.4219v-6.4375z"/>
  <path d="m62.055 85.715h-24.113c-0.57812 0-1.0977-0.34766-1.3203-0.88281-0.22266-0.53516-0.097656-1.1484 0.30859-1.5586 3.5898-3.5938 5.1406-7.2656 4.7305-11.223-0.039062-0.40234 0.089844-0.80469 0.36328-1.1016 0.26953-0.30078 0.65625-0.47266 1.0586-0.47266h13.844c0.40625 0 0.78906 0.17188 1.0586 0.47266s0.40234 0.69922 0.36328 1.1016c-0.40625 3.9453 1.1367 7.6172 4.7227 11.227 0.40625 0.41016 0.52734 1.0234 0.30469 1.5547-0.22266 0.53516-0.74219 0.88281-1.3203 0.88281zm-20.961-2.8594h17.82c-2.2969-3.0273-3.4648-6.2148-3.4844-9.5234h-10.844c-0.019532 3.3164-1.1875 6.5078-3.4922 9.5234z"/>
  <path d="m65.523 85.715h-31.047c-0.78906 0-1.4297-0.64062-1.4297-1.4297 0-0.78906 0.64062-1.4297 1.4297-1.4297h31.047c0.78906 0 1.4297 0.64062 1.4297 1.4297 0 0.78906-0.64062 1.4297-1.4297 1.4297z"/>
  <path d="m67.973 62.621h-35.945c-0.78906 0-1.4297-0.64062-1.4297-1.4297v-45.477c0-0.78906 0.64062-1.4297 1.4297-1.4297h35.949c0.78906 0 1.4297 0.64062 1.4297 1.4297v45.477c-0.003906 0.78906-0.64062 1.4297-1.4336 1.4297zm-34.52-2.8594h33.09l0.003906-42.617h-33.094z"/>
  <path d="m67.973 62.621h-35.945c-0.78906 0-1.4297-0.64062-1.4297-1.4297v-45.477c0-0.78906 0.64062-1.4297 1.4297-1.4297h35.949c0.78906 0 1.4297 0.64062 1.4297 1.4297v45.477c-0.003906 0.78906-0.64062 1.4297-1.4336 1.4297zm-34.52-2.8594h33.09l0.003906-42.617h-33.094z"/>
  <path d="m32.027 62.621h-16.312c-0.78906 0-1.4297-0.64062-1.4297-1.4297v-37.867c0-2.3594 1.918-4.2773 4.2773-4.2773h13.461c0.78906 0 1.4297 0.64062 1.4297 1.4297v40.715c0 0.78906-0.63672 1.4297-1.4258 1.4297zm-14.883-2.8594h13.453v-37.855h-12.035c-0.78125 0-1.418 0.63672-1.418 1.418z"/>
  <path d="m84.285 62.621h-16.312c-0.78906 0-1.4297-0.64062-1.4297-1.4297v-40.715c0-0.78906 0.64062-1.4297 1.4297-1.4297h13.461c2.3633 0 4.2812 1.918 4.2812 4.2773v37.867c0 0.78906-0.64062 1.4297-1.4297 1.4297zm-14.883-2.8594h13.453v-36.438c0-0.78125-0.63672-1.4219-1.4219-1.4219h-12.035z"/>
  <path d="m39.309 27.707c-0.36719 0-0.73047-0.14062-1.0117-0.41797l-2.4766-2.4766c-0.55859-0.55859-0.55859-1.4609 0-2.0195 0.55859-0.55859 1.4609-0.55859 2.0195 0l1.4648 1.4648 3.5703-3.5703c0.55859-0.55859 1.4609-0.55859 2.0195 0 0.55859 0.55859 0.55859 1.4609 0 2.0195l-4.582 4.582c-0.27344 0.28125-0.64062 0.41797-1.0039 0.41797z"/>
  <path d="m63.168 25.418h-13.766c-0.78906 0-1.4297-0.64062-1.4297-1.4297 0-0.78906 0.64062-1.4297 1.4297-1.4297h13.766c0.78906 0 1.4297 0.64062 1.4297 1.4297 0 0.78906-0.64062 1.4297-1.4297 1.4297z"/>
  <path d="m39.309 39.629c-0.36719 0-0.73047-0.14062-1.0117-0.41797l-2.4766-2.4766c-0.55859-0.55859-0.55859-1.4609 0-2.0195 0.55859-0.55859 1.4609-0.55859 2.0195 0l1.4648 1.4648 3.5703-3.5703c0.55859-0.55859 1.4609-0.55859 2.0195 0 0.55859 0.55859 0.55859 1.4609 0 2.0195l-4.582 4.582c-0.27344 0.27734-0.64062 0.41797-1.0039 0.41797z"/>
  <path d="m63.168 37.336h-13.766c-0.78906 0-1.4297-0.64063-1.4297-1.4297s0.64062-1.4297 1.4297-1.4297h13.766c0.78906 0 1.4297 0.64063 1.4297 1.4297 0 0.79297-0.64062 1.4297-1.4297 1.4297z"/>
  <path d="m39.309 51.547c-0.36719 0-0.73047-0.14062-1.0117-0.41797l-2.4766-2.4766c-0.55859-0.55859-0.55859-1.4609 0-2.0195 0.55859-0.55859 1.4609-0.55859 2.0195 0l1.4648 1.4648 3.5703-3.5703c0.55859-0.55859 1.4609-0.55859 2.0195 0 0.55859 0.55859 0.55859 1.4609 0 2.0195l-4.582 4.582c-0.27344 0.27734-0.64062 0.41797-1.0039 0.41797z"/>
  <path d="m63.168 49.254h-13.766c-0.78906 0-1.4297-0.64062-1.4297-1.4297 0-0.78906 0.64062-1.4297 1.4297-1.4297h13.766c0.78906 0 1.4297 0.64062 1.4297 1.4297 0 0.79297-0.64062 1.4297-1.4297 1.4297z"/>
 </g>
</svg>
