<?xml version="1.0" encoding="UTF-8"?>
<svg fill="#FF0440" width="100pt" height="100pt" version="1.1" viewBox="0 0 100 100" xmlns="http://www.w3.org/2000/svg">
 <g>
  <path d="m50 13c1.5 0 2.6992-1.1992 2.6992-2.6992v-5.1016c0-1.5-1.1992-2.6992-2.6992-2.6992s-2.6992 1.1992-2.6992 2.6992v5.1016c0 1.5 1.1992 2.6992 2.6992 2.6992z"/>
  <path d="m30.102 16.398c0.5 0.89844 1.3984 1.3984 2.3984 1.3984 0.5 0 0.89844-0.10156 1.3984-0.39844 1.3008-0.80078 1.8008-2.3984 1-3.6992l-2.5-4.3984c-0.80078-1.3008-2.3984-1.8008-3.6992-1s-1.8008 2.3984-1 3.6992z"/>
  <path d="m21 25.398-4.3984-2.5c-1.3008-0.80078-3-0.30078-3.6992 1-0.80078 1.3008-0.30078 3 1 3.6992l4.3984 2.5c0.39844 0.19922 0.89844 0.39844 1.3984 0.39844 0.89844 0 1.8984-0.5 2.3984-1.3984 0.70312-1.1992 0.20312-2.8984-1.0977-3.6992z"/>
  <path d="m17.699 45.301c0-1.5-1.1992-2.6992-2.6992-2.6992h-5.1016c-1.5 0-2.6992 1.1992-2.6992 2.6992s1.1992 2.6992 2.6992 2.6992h5.1016c1.5 0.10156 2.6992-1.1992 2.6992-2.6992z"/>
  <path d="m18.301 60.5-4.4023 2.5c-1.3008 0.80078-1.8008 2.3984-1 3.6992 0.5 0.89844 1.3984 1.3984 2.3984 1.3984 0.5 0 0.89844-0.10156 1.3984-0.39844l4.3984-2.5c1.3008-0.80078 1.8008-2.3984 1-3.6992-0.79297-1.3008-2.4922-1.8008-3.793-1z"/>
  <path d="m86.102 63-4.3984-2.5c-1.3008-0.80078-3-0.30078-3.6992 1-0.80078 1.3008-0.30078 3 1 3.6992l4.3984 2.5c0.39844 0.19922 0.89844 0.39844 1.3984 0.39844 0.89844 0 1.8984-0.5 2.3984-1.3984 0.60156-1.3008 0.19922-2.8984-1.0977-3.6992z"/>
  <path d="m90.102 42.602h-5.1016c-1.5 0-2.6992 1.1992-2.6992 2.6992s1.1992 2.6992 2.6992 2.6992h5.1016c1.5 0 2.6992-1.1992 2.6992-2.6992s-1.1992-2.6992-2.6992-2.6992z"/>
  <path d="m80.301 30.5c0.5 0 0.89844-0.10156 1.3984-0.39844l4.3984-2.5c1.3008-0.80078 1.8008-2.3984 1-3.6992-0.80078-1.3008-2.3984-1.8008-3.6992-1l-4.3984 2.4961c-1.3008 0.80078-1.8008 2.3984-1 3.6992 0.5 1.0039 1.3984 1.4023 2.3008 1.4023z"/>
  <path d="m66.102 17.398c0.39844 0.19922 0.89844 0.39844 1.3984 0.39844 0.89844 0 1.8984-0.5 2.3984-1.3984l2.5-4.3984c0.80078-1.3008 0.30078-3-1-3.6992-1.3008-0.80078-3-0.30078-3.6992 1l-2.5 4.3984c-0.80078 1.1992-0.39844 2.9023 0.90234 3.6992z"/>
  <path d="m51.199 19.199c-7.3008-0.30078-14.102 2.1992-19.398 7.1992-5.1992 5-8.1016 11.801-8.1016 19 0 6 1.8984 11.602 5.6016 16.301 3.1992 4.1016 5.5 8.1016 6.8008 12.102l0.10156 0.30078v10.5c0 1.3984 1 2.5 2.3008 2.6992 0.69922 5.6992 5.5 10.102 11.398 10.102 5.8984 0 10.699-4.3984 11.398-10.102 1.3008-0.19922 2.3008-1.3008 2.3008-2.6992v-10.5l0.10156-0.30078c1.3984-4.1016 3.6016-8 6.8008-12.102 3.8984-4.8984 5.8984-11.102 5.6016-17.398-0.40625-13.5-11.406-24.5-24.906-25.102zm-1.1992 72.801c-2.8008 0-5.1992-2-5.8008-4.6016h11.699c-0.69922 2.6016-3.0977 4.6016-5.8984 4.6016zm8.1992-10.102h-16.398v-6.6992h16.5v6.6992zm8.1016-23.598c-3 3.8008-5.1992 7.6016-6.8008 11.398h-19c-1.6016-3.8984-3.8008-7.6016-6.8008-11.5-2.8984-3.6992-4.5-8.1016-4.5-12.898 0-5.6992 2.3008-11.102 6.3984-15 4.1016-4 9.6016-6 15.301-5.6992 10.602 0.5 19.301 9.1992 19.801 19.801 0.30078 5.0977-1.3008 9.9961-4.3984 13.898z"/>
  <path d="m50.699 30.199c-1.5-0.10156-2.8008 1.1016-2.8984 2.6016-0.10156 1.5 1.1016 2.8008 2.6016 2.8984 4.8984 0.19922 9.1016 4.3984 9.3008 9.3008 0.10156 1.5 1.3008 2.6016 2.6992 2.6016h0.10156c1.5-0.10156 2.6992-1.3008 2.6016-2.8984-0.10547-7.6016-6.707-14.203-14.406-14.504z"/>
 </g>
</svg>
